<?xml version="1.0" encoding="UTF-8" standalone="no"?>
<!DOCTYPE svg PUBLIC "-//W3C//DTD SVG 1.1//EN"
 "http://www.w3.org/Graphics/SVG/1.1/DTD/svg11.dtd">
<!-- Generated by graphviz version 2.28.0 (20111028.1807)
 -->
<!-- Title: G Pages: 1 -->
<svg width="110pt" height="134pt"
 viewBox="0.00 0.00 110.00 134.00" xmlns="http://www.w3.org/2000/svg" xmlns:xlink="http://www.w3.org/1999/xlink">
<g id="graph1" class="graph" transform="scale(1 1) rotate(0) translate(4 130)">
<title>G</title>
<polygon fill="white" stroke="white" points="-4,5 -4,-130 107,-130 107,5 -4,5"/>
<g id="graph2" class="cluster"><title>cluster_Example</title>
<polyline fill="none" stroke="gray" points="20,-8 82,-8 "/>
<path fill="none" stroke="gray" d="M82,-8C88,-8 94,-14 94,-20"/>
<polyline fill="none" stroke="gray" points="94,-20 94,-106 "/>
<path fill="none" stroke="gray" d="M94,-106C94,-112 88,-118 82,-118"/>
<polyline fill="none" stroke="gray" points="82,-118 20,-118 "/>
<path fill="none" stroke="gray" d="M20,-118C14,-118 8,-112 8,-106"/>
<polyline fill="none" stroke="gray" points="8,-106 8,-20 "/>
<path fill="none" stroke="gray" d="M8,-20C8,-14 14,-8 20,-8"/>
<text text-anchor="middle" x="51" y="-103" font-family="Times,serif" font-size="11.00" fill="gray">Example</text>
</g>
<g id="graph3" class="cluster"><title>cluster_Example\Testing</title>
<polyline fill="none" stroke="gray" points="28,-16 74,-16 "/>
<path fill="none" stroke="gray" d="M74,-16C80,-16 86,-22 86,-28"/>
<polyline fill="none" stroke="gray" points="86,-28 86,-77 "/>
<path fill="none" stroke="gray" d="M86,-77C86,-83 80,-89 74,-89"/>
<polyline fill="none" stroke="gray" points="74,-89 28,-89 "/>
<path fill="none" stroke="gray" d="M28,-89C22,-89 16,-83 16,-77"/>
<polyline fill="none" stroke="gray" points="16,-77 16,-28 "/>
<path fill="none" stroke="gray" d="M16,-28C16,-22 22,-16 28,-16"/>
<text text-anchor="middle" x="51" y="-74" font-family="Times,serif" font-size="11.00" fill="gray">Testing</text>
</g>
<!-- \\Example\\Testing\\Foo -->
<g id="node3" class="node"><title>\\Example\\Testing\\Foo</title>
<a xlink:href="Foo.html" xlink:title="Foo" target="_parent">
<polygon fill="none" stroke="black" points="78,-60 24,-60 24,-24 78,-24 78,-60"/>
<text text-anchor="middle" x="51" y="-37.6" font-family="Courier,monospace" font-size="11.00">Foo</text>
</a>
</g>
</g>
</svg>
